<svg id="Ebene_1" data-name="Ebene 1" xmlns="http://www.w3.org/2000/svg" xmlns:xlink="http://www.w3.org/1999/xlink" width="543" height="556" viewBox="0 0 543 556"><defs><style>.cls-1{fill:#090800;}.cls-2{fill:url(#New_Gradient_Swatch);}.cls-3{fill:url(#radial-gradient);}.cls-4{fill:url(#radial-gradient-2);}.cls-5{fill:url(#radial-gradient-3);}.cls-6{fill:url(#radial-gradient-4);}.cls-7{fill:url(#New_Gradient_Swatch_copy_32);}.cls-8{fill:url(#New_Gradient_Swatch_copy_32-2);}.cls-9{fill:url(#New_Gradient_Swatch_copy_32-3);}.cls-10{fill:url(#New_Gradient_Swatch_copy_32-4);}.cls-11{fill:url(#radial-gradient-5);}.cls-12{fill:url(#radial-gradient-6);}.cls-13{fill:url(#radial-gradient-7);}.cls-14{fill:url(#radial-gradient-8);}.cls-15{fill:url(#New_Gradient_Swatch_copy_32-5);}.cls-16{fill:url(#New_Gradient_Swatch_copy_32-6);}.cls-17{fill:url(#New_Gradient_Swatch_copy_32-7);}.cls-18{fill:url(#New_Gradient_Swatch_copy_32-8);}</style><radialGradient id="New_Gradient_Swatch" cx="548.45383" cy="-452.5614" r="1261.82183" gradientTransform="translate(-26.28563 -15.73067) scale(1.04619 1.0263)" gradientUnits="userSpaceOnUse"><stop offset="0" stop-color="#fff" stop-opacity="0.95"/><stop offset="0.06866" stop-color="#fff" stop-opacity="0.93171"/><stop offset="0.14643" stop-color="#fff" stop-opacity="0.87812"/><stop offset="0.22861" stop-color="#fff" stop-opacity="0.78925"/><stop offset="0.31337" stop-color="#fff" stop-opacity="0.66579"/><stop offset="0.32215" stop-color="#fff" stop-opacity="0.65124"/><stop offset="0.42656" stop-color="#fff" stop-opacity="0.46361"/><stop offset="0.57741" stop-color="#fff" stop-opacity="0.21482"/><stop offset="0.68775" stop-color="#fff" stop-opacity="0.05929"/><stop offset="0.74496" stop-color="#fff" stop-opacity="0"/></radialGradient><radialGradient id="radial-gradient" cx="435.987" cy="235.16541" r="22.43413" gradientTransform="translate(-5044.68636 -2413.30489) scale(11.52172 11.83185)" gradientUnits="userSpaceOnUse"><stop offset="0.00122" stop-color="#a8d1ef"/><stop offset="0.02191" stop-color="#9eceee"/><stop offset="0.1604" stop-color="#5dbae6"/><stop offset="0.26126" stop-color="#34aee2"/><stop offset="0.31329" stop-color="#25a9e0"/><stop offset="0.57017" stop-color="#1b75bb"/><stop offset="0.80802" stop-color="#2b388f"/><stop offset="1" stop-color="#262261"/></radialGradient><radialGradient id="radial-gradient-2" cx="-11257.2147" cy="-2925.18741" r="108.33722" gradientTransform="translate(-128830.66127 -34232.59829) rotate(180) scale(11.52172 11.83185)" xlink:href="#radial-gradient"/><radialGradient id="radial-gradient-3" cx="449.88998" cy="220.96099" r="51.49757" xlink:href="#radial-gradient"/><radialGradient id="radial-gradient-4" cx="434.04375" cy="237.09525" r="43.06891" xlink:href="#radial-gradient"/><radialGradient id="New_Gradient_Swatch_copy_32" cx="-11238.19837" cy="-3008.02357" r="21.16573" gradientTransform="translate(-128925.36637 -35401.32853) rotate(180) scale(11.52172 11.83185)" gradientUnits="userSpaceOnUse"><stop offset="0" stop-color="#fff"/><stop offset="0.26119" stop-color="#f6d014"/><stop offset="0.48056" stop-color="#ec9d24"/><stop offset="0.57081" stop-color="#dc7b24"/><stop offset="0.76913" stop-color="#b42624"/><stop offset="0.78344" stop-color="#b12024"/><stop offset="0.92235" stop-color="#780a0c"/><stop offset="1" stop-color="#5d0000"/></radialGradient><radialGradient id="New_Gradient_Swatch_copy_32-2" cx="405.28583" cy="306.9658" r="108.3415" gradientTransform="translate(-5139.39146 -3582.04696) scale(11.52172 11.83185)" xlink:href="#New_Gradient_Swatch_copy_32"/><radialGradient id="New_Gradient_Swatch_copy_32-3" cx="-11225.29669" cy="-3022.22659" r="52.70544" xlink:href="#New_Gradient_Swatch_copy_32"/><radialGradient id="New_Gradient_Swatch_copy_32-4" cx="-11241.37654" cy="-3006.13744" r="44.4154" xlink:href="#New_Gradient_Swatch_copy_32"/><radialGradient id="radial-gradient-5" cx="434.3199" cy="238.58245" r="61.59985" xlink:href="#radial-gradient"/><radialGradient id="radial-gradient-6" cx="-11152.2464" cy="-2932.56018" r="82.39805" gradientTransform="translate(-128830.66127 -34232.59829) rotate(180) scale(11.52172 11.83185)" xlink:href="#radial-gradient"/><radialGradient id="radial-gradient-7" cx="429.57067" cy="235.5058" r="37.7013" xlink:href="#radial-gradient"/><radialGradient id="radial-gradient-8" cx="465.84631" cy="226.39436" r="39.9516" xlink:href="#radial-gradient"/><radialGradient id="New_Gradient_Swatch_copy_32-5" cx="-11236.41648" cy="-3004.60653" r="61.59942" xlink:href="#New_Gradient_Swatch_copy_32"/><radialGradient id="New_Gradient_Swatch_copy_32-6" cx="519.85034" cy="310.62963" r="82.40095" gradientTransform="translate(-5139.39146 -3582.04696) scale(11.52172 11.83185)" xlink:href="#New_Gradient_Swatch_copy_32"/><radialGradient id="New_Gradient_Swatch_copy_32-7" cx="-11245.15161" cy="-3007.68319" r="37.69199" xlink:href="#New_Gradient_Swatch_copy_32"/><radialGradient id="New_Gradient_Swatch_copy_32-8" cx="-11208.88053" cy="-3016.79389" r="39.95097" xlink:href="#New_Gradient_Swatch_copy_32"/></defs><title>zentadexlogo</title><path class="cls-1" d="M819.74767,206.88065c-.30417-14.68569-1.35035-26.64533-3.19036-36.50126-2.48063-14.15444-5.8899-25.13085-11.06546-35.59968-5.1986-10.44516-12.43885-20.50933-22.25075-30.8622-10.05846-10.0062-19.84847-17.41294-29.95763-22.68166-9.90177-5.10663-20.56282-8.60767-34.526-11.33491-10.0527-2.01023-21.6931-3.0964-35.58369-3.33895l-231.9242-.25438-35.43736.25438c-13.91363.24255-25.58053,1.32872-35.6459,3.3283-14.05881,2.76155-24.70833,6.25077-34.55365,11.34556-10.29005,5.35036-20.06738,12.77958-30.00833,22.80944-10.08727,10.664-17.12474,20.45136-22.12632,30.71194-5.103,10.22509-8.44427,20.856-11.17838,35.58784a227.84455,227.84455,0,0,0-3.15119,36.6042l-.1855,16.25815c-.06107,8.33081-.06107,15.14714-.06107,20.01239V445.14694c0,4.95636,0,11.70407.06107,19.94259l.1855,16.35044a232.85477,232.85477,0,0,0,3.15119,36.6042c1.946,10.457,4.80456,22.86624,11.15072,35.4151,4.97278,10.24875,12.22455,20.32357,22.27264,30.94266,9.85568,9.85593,19.61112,17.30882,29.90693,22.79761,10.09188,5.19892,20.77021,8.66565,34.53636,11.20713,9.82342,1.90729,21.46843,3.00411,35.6966,3.3283l15.79743.16091C439.80045,622,446.36552,622,451.24958,622H647.7203c4.90019,0,11.4595,0,19.43715-.10412l16.03363-.16091c14.12678-.32419,25.76142-1.421,35.48806-3.31647,13.77191-2.54148,24.4272-5.99638,34.67232-11.25446,10.01353-5.34918,19.78625-12.7784,30.0187-22.87807,9.65981-10.21325,16.90006-20.27743,22.12171-30.76873,5.15828-10.29608,8.56179-21.24882,11.0597-35.47308,1.84-9.93639,2.892-21.90786,3.19613-36.70832L820,243.21982Z" transform="translate(-277 -66)"/><path class="cls-1" d="M807.7478,207.00725c-.29265-13.85392-1.26048-25.15452-2.98758-34.37508-2.279-12.98664-5.33917-22.92421-9.95246-32.27138-4.64671-9.301-11.20142-18.38315-20.04434-27.73031-9.05262-9.00167-17.88517-15.71507-26.88594-20.38273-8.957-4.64519-18.35756-7.69544-31.38748-10.26058a190.563,190.563,0,0,0-33.51784-3.10823l-35.25186-.24255H451.24958l-35.23573.24255a192.00679,192.00679,0,0,0-33.56854,3.0964c-13.11979,2.58881-22.52036,5.63906-31.42089,10.27241-9.16438,4.76-17.96813,11.4627-26.90783,20.475-9.10907,9.64769-15.48289,18.45177-19.93258,27.60371-4.59025,9.17442-7.60088,18.81028-10.093,32.30569a220.239,220.239,0,0,0-2.94265,34.491l-.17974,16.24513c-.07259,8.22669-.07259,15.02172-.07259,19.85148V445.14694c0,4.93388,0,11.64609.07259,19.78049l.17974,16.3386a220.82932,220.82932,0,0,0,2.95417,34.50168c2.51519,13.55339,5.51891,23.15612,10.03657,32.09863,4.46121,9.18625,11.01477,18.25655,20.06738,27.82378,8.88325,8.88572,17.7158,15.64407,26.87442,20.53181,8.94547,4.61087,18.62141,7.7191,31.27456,10.06417,9.21507,1.80317,20.20219,2.81953,33.68145,3.10823l15.741.17393c8.10668.10294,14.62683.10294,19.47171.10294H647.76523c4.85525,0,11.34774,0,19.26893-.10294l15.98293-.17393c13.36635-.2887,24.35346-1.30505,33.4683-3.08456,12.65776-2.34626,22.33371-5.45448,31.414-10.134,8.90629-4.74812,17.7665-11.50766,27.00461-20.6241a115.129,115.129,0,0,0,19.9153-27.651c4.57873-9.17323,7.64581-19.0765,9.92942-32.10928,1.73863-9.31285,2.70645-20.61345,2.9991-34.58332l.26385-36.06112ZM582.91061,599.61887V518.92209l-169.79332-.35732-64.32578-91.2011,55.58309-59.87509,66.02523-71.14138H572.22767l-83.42073,86.1276L418.63043,454.9449H717.95326ZM694.53305,337.43567l-66.01371,71.14138H526.68l83.42073-86.1276L680.283,249.97936H380.94864l135.04265-144.687v80.6743l169.79908.381,64.31425,91.19992Z" transform="translate(-277 -66)"/><path class="cls-2" d="M817.724,197.74677c-.30617-14.21825-1.31869-25.816-3.12557-35.27908-2.38426-13.32816-5.58577-23.52708-10.41214-33.12005-4.86133-9.54562-11.71879-18.86659-20.97014-28.45956-9.47074-9.2384-18.71124-16.12834-28.12774-20.91876-9.37069-4.76734-19.20545-7.89781-32.83719-10.53042-9.81668-1.90888-21.27631-2.95318-35.066-3.19L650.30516,66H444.75993l-36.86319.24893c-13.8246.23679-25.31436,1.28109-35.119,3.17782-13.72576,2.65689-23.56052,5.78736-32.87215,10.54256-9.58766,4.88513-18.798,11.76414-28.15064,21.01347-9.5298,9.90141-16.198,18.937-20.85322,28.32963-4.80227,9.41569-7.95195,19.305-10.5592,33.15527a221.84584,221.84584,0,0,0-3.07856,35.39808l-.188,16.67235C277,222.98115,277,229.95488,277,234.91165V442.14906c0,5.06363,0,11.95236.07594,20.30068l.188,16.76828a222.4409,222.4409,0,0,0,3.09062,35.409c2.63136,13.90981,5.77381,23.76508,10.50014,32.94276,4.66726,9.42783,11.52351,18.73666,20.99425,28.55549,9.29354,9.1194,18.53405,16.05548,28.11568,21.07176,9.35864,4.73213,19.48149,7.9221,32.71906,10.32884,9.6407,1.85059,21.13528,2.89368,35.23712,3.19l16.468.1785C432.87,611,439.69127,611,444.75993,611H650.35217c5.07951,0,11.87187,0,20.15892-.10564l16.72115-.1785c13.98371-.29629,25.47829-1.33937,35.01412-3.16568,13.2424-2.408,23.36525-5.59793,32.86491-10.40049,9.31765-4.873,18.58709-11.81029,28.25189-21.16647,9.0814-9.40476,15.93765-18.7488,20.83514-28.37821,4.79021-9.41447,7.999-19.57817,10.388-32.95369,1.81893-9.55776,2.83146-21.15555,3.13763-35.49279L818,442.14906ZM582.50207,600.6833V517.86435l-177.63567-.36672-67.29683-93.59951,58.15035-61.44969,69.07478-73.01226h106.531L484.052,377.82877l-73.4178,74.37592H723.782Zm116.778-269.0781-69.06273,73.01226H523.67429L610.948,316.22487,684.37185,241.849H371.212l141.28-148.492v82.79588l177.6417.391,67.28478,93.5983Z" transform="translate(-277 -66)"/><polygon class="cls-3" points="70.792 354.057 135.117 445.256 149.227 418.705 140.63 381.626 110.021 354.057 70.792 354.057"/><polygon class="cls-4" points="304.911 445.627 368.319 434.777 439.953 381.626 140.63 381.626 188.355 418.034 304.911 445.627"/><polygon class="cls-5" points="192.4 223.028 294.228 223.028 210.807 309.166 192.4 272.724 192.4 223.028"/><polygon class="cls-6" points="140.63 381.626 126.375 345.726 126.375 294.192 179.229 287.468 210.807 309.166 140.63 381.626"/><polygon class="cls-7" points="472.105 204.24 407.79 113.052 398.969 144.677 402.283 176.671 431.577 196.395 472.105 204.24"/><polygon class="cls-8" points="237.991 112.67 168.586 133.458 102.949 176.671 402.283 176.671 332.101 137.466 237.991 112.67"/><polygon class="cls-9" points="350.519 335.257 248.68 335.257 332.101 249.129 353.979 287.468 350.519 335.257"/><polygon class="cls-10" points="402.283 176.671 419.183 220.393 416.533 264.127 374.316 266.103 332.101 249.129 402.283 176.671"/><polygon class="cls-11" points="439.953 381.626 304.911 526.3 304.911 445.627 439.953 381.626"/><polygon class="cls-12" points="304.911 445.627 140.63 381.626 135.117 445.256 304.911 445.627"/><polygon class="cls-13" points="70.792 354.057 126.375 294.192 140.63 381.626 70.792 354.057"/><polygon class="cls-14" points="192.4 223.028 126.375 294.192 210.807 309.166 192.4 223.028"/><polygon class="cls-15" points="102.949 176.671 237.991 32.008 237.991 112.67 102.949 176.671"/><polygon class="cls-16" points="237.991 112.67 402.283 176.671 407.79 113.052 237.991 112.67"/><polygon class="cls-17" points="472.105 204.24 416.533 264.127 402.283 176.671 472.105 204.24"/><polygon class="cls-18" points="350.519 335.257 416.533 264.127 332.101 249.129 350.519 335.257"/></svg>